<?xml version="1.0" encoding="UTF-8" standalone="no"?>
<!-- Created with Inkscape (http://www.inkscape.org/) -->

<svg
   xmlns:dc="http://purl.org/dc/elements/1.1/"
   xmlns:cc="http://creativecommons.org/ns#"
   xmlns:rdf="http://www.w3.org/1999/02/22-rdf-syntax-ns#"
   xmlns:svg="http://www.w3.org/2000/svg"
   xmlns="http://www.w3.org/2000/svg"
   xmlns:sodipodi="http://sodipodi.sourceforge.net/DTD/sodipodi-0.dtd"
   xmlns:inkscape="http://www.inkscape.org/namespaces/inkscape"
   version="1.1"
   id="svg10"
   width="351.86484"
   height="457.0285"
   viewBox="0 0 351.86484 457.0285"
   sodipodi:docname="detlef.svg"
   inkscape:version="0.92.3 (2405546, 2018-03-11)">
  <metadata
     id="metadata16">
    <rdf:RDF>
      <cc:Work
         rdf:about="">
        <dc:format>image/svg+xml</dc:format>
        <dc:type
           rdf:resource="http://purl.org/dc/dcmitype/StillImage" />
        <dc:title></dc:title>
      </cc:Work>
    </rdf:RDF>
  </metadata>
  <defs
     id="defs14">
    <meshgradient
       inkscape:collect="always"
       id="meshgradient862"
       gradientUnits="userSpaceOnUse"
       x="603.32507"
       y="262.45752"
       gradientTransform="translate(-603.32505,-262.45751)">
      <meshrow
         id="meshrow71738">
        <meshpatch
           id="meshpatch71740">
          <stop
             path="c 32.8135,0  65.6271,0  98.4408,0"
             style="stop-color:#0b1009;stop-opacity:1"
             id="stop71742" />
          <stop
             path="c 1.01613e-05,26.1316  2.03943e-05,47.8797  3.06032e-05,69.1508"
             style="stop-color:#11120d;stop-opacity:1"
             id="stop71744" />
          <stop
             path="c -32.8136,-0.199782  -65.6272,9.43892  -98.4408,9.24079"
             style="stop-color:#10110c;stop-opacity:1"
             id="stop71746" />
          <stop
             path="c -9.37111e-06,-26.131  -2.62728e-05,-52.2616  -3.06032e-05,-78.3916"
             style="stop-color:#0b0f09;stop-opacity:1"
             id="stop71748" />
        </meshpatch>
        <meshpatch
           id="meshpatch71750">
          <stop
             path="c 27.8604,0  55.7208,0  83.5812,0"
             id="stop71752" />
          <stop
             path="c 0,26.1316  -0.488984,40.9145  0.205321,59.4084"
             style="stop-color:#10110c;stop-opacity:1"
             id="stop71754" />
          <stop
             path="c -27.8321,-0.114904  -55.9543,9.8533  -83.7865,9.7424"
             style="stop-color:#10110c;stop-opacity:1"
             id="stop71756" />
        </meshpatch>
        <meshpatch
           id="meshpatch71758">
          <stop
             path="c 13.8829,0  27.7657,0  41.6486,0"
             id="stop71760" />
          <stop
             path="c -0.00212651,26.1383  -1.21291,62.1257  -0.700499,81.2548"
             style="stop-color:#0d0e09;stop-opacity:1"
             id="stop71762" />
          <stop
             path="c -13.7085,-0.610319  -26.8526,-21.8734  -40.7428,-21.8464"
             style="stop-color:#14361e;stop-opacity:1"
             id="stop71764" />
        </meshpatch>
        <meshpatch
           id="meshpatch71766">
          <stop
             path="c 12.9262,0  25.8524,0  38.7786,-5.68434e-14"
             id="stop71768" />
          <stop
             path="c -2.86509e-05,26.1316  -35.2664,94.0546  -29.3432,104.982"
             style="stop-color:#0b0d08;stop-opacity:1"
             id="stop71770" />
          <stop
             path="c -8.3991,-6.87432  -2.01228,-3.49213  -10.1359,-23.7269"
             style="stop-color:#114d55;stop-opacity:1"
             id="stop71772" />
        </meshpatch>
        <meshpatch
           id="meshpatch71774">
          <stop
             path="c 29.8053,5.68434e-14  59.6106,5.68434e-14  89.4158,5.68434e-14"
             id="stop71776" />
          <stop
             path="c 1.13687e-13,26.1316  -0.996156,42.1905  -2.10079,57.1528"
             style="stop-color:#000000;stop-opacity:1"
             id="stop71778" />
          <stop
             path="c -29.8643,-0.193292  -98.0853,43.5627  -116.658,47.8289"
             style="stop-color:#2b2b2b;stop-opacity:1"
             id="stop71780" />
        </meshpatch>
      </meshrow>
      <meshrow
         id="meshrow71782">
        <meshpatch
           id="meshpatch71784">
          <stop
             path="c 1.27039e-05,26.4697  2.53705e-05,52.2006  3.7815e-05,84.7202"
             id="stop71786" />
          <stop
             path="c -32.8136,-0.00369816  -65.6272,22.0741  -98.4408,22.0741"
             style="stop-color:#10110b;stop-opacity:1"
             id="stop71788" />
          <stop
             path="c 0,-32.5181  0,-65.0361  -3.7815e-05,-97.5535"
             style="stop-color:#0c0e09;stop-opacity:1"
             id="stop71790" />
        </meshpatch>
        <meshpatch
           id="meshpatch71792">
          <stop
             path="c 0.863995,23.0136  2.94867,49.3266  2.94867,81.8466"
             id="stop71794" />
          <stop
             path="c -27.8604,-0.00433883  -58.8748,12.611  -86.7351,12.616"
             style="stop-color:#10110c;stop-opacity:1"
             id="stop71796" />
        </meshpatch>
        <meshpatch
           id="meshpatch71798">
          <stop
             path="c 0.63765,23.805  3.02619,30.3754  3.02356,62.9033"
             id="stop71800" />
          <stop
             path="c -13.475,-1.42735  -26.9349,-2.90607  -40.8177,-2.9031"
             style="stop-color:#10110c;stop-opacity:1"
             id="stop71802" />
        </meshpatch>
        <meshpatch
           id="meshpatch71804">
          <stop
             path="c 5.31046,17.5581  41.3743,8.71817  30.9201,41.7941"
             id="stop71806" />
          <stop
             path="c -12.9262,-0.00245336  -25.4859,-1.28692  -38.0324,-2.6177"
             style="stop-color:#10110c;stop-opacity:1"
             id="stop71808" />
        </meshpatch>
        <meshpatch
           id="meshpatch71810">
          <stop
             path="c -1.37461,18.6191  -2.91719,35.5399  -2.9172,68.0592"
             id="stop71812" />
          <stop
             path="c -29.8052,6.67656e-05  -53.0155,21.5633  -82.8209,21.5638"
             style="stop-color:#626262;stop-opacity:1"
             id="stop71814" />
        </meshpatch>
      </meshrow>
      <meshrow
         id="meshrow71816">
        <meshpatch
           id="meshpatch71818">
          <stop
             path="c -2.67619e-06,9.91796  -4.82272e-06,20.8747  -6.61485e-06,32.4198"
             id="stop71820" />
          <stop
             path="c -32.8136,0.705815  -65.6272,18.704  -98.4408,19.4127"
             style="stop-color:#0b2325;stop-opacity:1"
             id="stop71822" />
          <stop
             path="c 1.48563e-06,-9.91931  2.84202e-06,-19.8387  6.61485e-06,-29.7584"
             style="stop-color:#0a0c07;stop-opacity:1"
             id="stop71824" />
        </meshpatch>
        <meshpatch
           id="meshpatch71826">
          <stop
             path="c 5.97652e-06,9.91774  -0.148353,21.4679  -0.38072,33.9425"
             id="stop71828" />
          <stop
             path="c -27.9615,0.401093  -58.393,10.6848  -86.3544,11.0933"
             style="stop-color:#132513;stop-opacity:1"
             id="stop71830" />
        </meshpatch>
        <meshpatch
           id="meshpatch71832">
          <stop
             path="c 0.00102609,9.91443  -0.107898,21.3268  -0.279078,33.5876"
             id="stop71834" />
          <stop
             path="c -13.5373,-1.20935  -27.0628,-2.45893  -40.9193,-2.5482"
             style="stop-color:#10261b;stop-opacity:1"
             id="stop71836" />
        </meshpatch>
        <meshpatch
           id="meshpatch71838">
          <stop
             path="c 8.85379e-07,9.91763  -0.0741801,21.2081  -0.190365,33.276"
             id="stop71840" />
          <stop
             path="c -12.9018,-0.0871767  -25.5166,-1.17832  -38.1212,-2.3061"
             style="stop-color:#0e2724;stop-opacity:1"
             id="stop71842" />
        </meshpatch>
        <meshpatch
           id="meshpatch71844">
          <stop
             path="c -9.03546e-06,9.91889  3.90289,30.9886  3.90288,40.9076"
             id="stop71846" />
          <stop
             path="c -29.7546,-0.935835  -57.1593,14.8675  -86.9142,13.9322"
             style="stop-color:#124246;stop-opacity:1"
             id="stop71848" />
        </meshpatch>
      </meshrow>
      <meshrow
         id="meshrow71850">
        <meshpatch
           id="meshpatch71852">
          <stop
             path="c -6.47091e-06,41.686  -8.32155e-06,91.0415  -1.38034e-05,126.857"
             id="stop71854" />
          <stop
             path="c -32.8136,-6.21677e-05  -65.0699,-40.1442  -97.8832,-40.1441"
             style="stop-color:#51696b;stop-opacity:1"
             id="stop71856" />
          <stop
             path="c 9.78717e-05,-35.8143  -0.557426,-31.4844  -0.557586,-67.3002"
             style="stop-color:#0e3d40;stop-opacity:1"
             id="stop71858" />
        </meshpatch>
        <meshpatch
           id="meshpatch71860">
          <stop
             path="c -0.839015,45.0423  -2.77328,102.136  -2.77328,137.95"
             id="stop71862" />
          <stop
             path="c -27.8604,-1.27899e-05  -55.7208,-2.55798e-05  -83.5811,0.0003"
             style="stop-color:#1b4d5b;stop-opacity:1"
             id="stop71864" />
        </meshpatch>
        <meshpatch
           id="meshpatch71866">
          <stop
             path="c -0.543615,44.2688  11.094,99.3082  11.1719,135.109"
             id="stop71868" />
          <stop
             path="c -20.3709,0.144204  -40.9818,0.293337  -54.8645,0.2928"
             style="stop-color:#155563;stop-opacity:1"
             id="stop71870" />
        </meshpatch>
        <meshpatch
           id="meshpatch71872">
          <stop
             path="c -0.419513,43.5738  23.7039,96.7256  23.7033,132.54"
             id="stop71874" />
          <stop
             path="c -12.9262,0.000708585  -31.6853,0.130701  -50.6526,0.2629"
             style="stop-color:#115e6b;stop-opacity:1"
             id="stop71876" />
        </meshpatch>
        <meshpatch
           id="meshpatch71878">
          <stop
             path="c 2.69293e-06,35.8144  1.11512,111.218  1.11512,147.033"
             id="stop71880" />
          <stop
             path="c -29.8052,-0.0003  -34.52,-0.557866  -64.326,-0.5608"
             style="stop-color:#114048;stop-opacity:1"
             id="stop71882" />
        </meshpatch>
      </meshrow>
      <meshrow
         id="meshrow71884">
        <meshpatch
           id="meshpatch71886">
          <stop
             path="c -6.87481e-06,47.9604  -1.37496e-05,95.9207  -2.06244e-05,143.881"
             id="stop71888" />
          <stop
             path="c -32.8136,0  -65.6272,0  -98.4408,0"
             style="stop-color:#16464a;stop-opacity:1"
             id="stop71890" />
          <stop
             path="c 0,-47.9603  0.557632,-136.066  0.557621,-184.025"
             style="stop-color:#000000;stop-opacity:1"
             id="stop71892" />
        </meshpatch>
        <meshpatch
           id="meshpatch71894">
          <stop
             path="c 2.27374e-13,47.9603  2.27374e-13,95.9206  2.27374e-13,143.881"
             id="stop71896" />
          <stop
             path="c -27.8604,0  -55.7208,0  -83.5812,0.0003"
             style="stop-color:#1d4c51;stop-opacity:1"
             id="stop71898" />
        </meshpatch>
        <meshpatch
           id="meshpatch71900">
          <stop
             path="c 0.0464884,47.9637  8.17719,96.2134  8.22388,144.178"
             id="stop71902" />
          <stop
             path="c -24.4077,4.23961e-05  -49.2049,-0.00131674  -63.0884,-0.0042"
             style="stop-color:#1a494e;stop-opacity:1"
             id="stop71904" />
        </meshpatch>
        <meshpatch
           id="meshpatch71906">
          <stop
             path="c -8.34466e-05,47.9618  15.6112,96.4761  15.6115,144.439"
             id="stop71908" />
          <stop
             path="c -12.9262,0.00238642  -35.3143,0.00364093  -58.0402,0.0019"
             style="stop-color:#19474c;stop-opacity:1"
             id="stop71910" />
        </meshpatch>
        <meshpatch
           id="meshpatch71912">
          <stop
             path="c -2.27374e-13,47.96  -2.27374e-13,95.9203  -1e-05,143.877"
             id="stop71914" />
          <stop
             path="c -9.73323,-0.553354  -18.9091,0.00420858  -48.7145,0.0012"
             style="stop-color:#1a626b;stop-opacity:1"
             id="stop71916" />
        </meshpatch>
      </meshrow>
    </meshgradient>
  </defs>
  <sodipodi:namedview
     pagecolor="#ffffff"
     bordercolor="#666666"
     borderopacity="1"
     objecttolerance="10"
     gridtolerance="10"
     guidetolerance="10"
     inkscape:pageopacity="0"
     inkscape:pageshadow="2"
     inkscape:window-width="640"
     inkscape:window-height="480"
     id="namedview12"
     showgrid="false"
     inkscape:current-layer="svg10"
     fit-margin-top="0"
     fit-margin-left="0"
     fit-margin-right="0"
     fit-margin-bottom="0" />
  <path
     inkscape:connector-curvature="0"
     id="path33"
     d="m 342.82542,449.43451 c -3.94892,-4.17669 -7.17992,-8.66052 -7.17992,-9.96403 0,-1.30351 -0.99766,-3.73363 -2.21701,-5.40029 -3.86696,-5.28545 -5.38415,-8.59021 -5.38415,-11.72757 0,-1.67684 -0.88351,-3.38781 -1.96325,-3.80216 -2.73439,-1.04927 -8.80037,-14.598 -7.23618,-16.16222 1.37923,-1.37923 0.61671,-7.1 -1.08671,-8.15274 -0.61354,-0.37923 -1.1156,-2.04741 -1.1156,-3.7071 0,-1.65969 -0.57008,-3.36995 -1.26686,-3.80058 -0.69677,-0.43063 -1.26685,-1.8285 -1.26685,-3.10638 0,-1.27788 -0.85514,-2.65155 -1.90029,-3.05262 -1.19275,-0.45769 -1.90029,-2.39496 -1.90029,-5.20298 0,-2.71701 -0.6219,-4.4866 -1.58358,-4.50645 -0.87096,-0.018 -2.64799,-2.44084 -3.94893,-5.38415 -2.21383,-5.00897 -5.41392,-11.63096 -8.20418,-16.97698 -0.66307,-1.27047 -2.22612,-4.87533 -3.4736,-8.01081 -1.24735,-3.13548 -3.01614,-6.60088 -3.93056,-7.70091 -0.91442,-1.10003 -1.66262,-2.56481 -1.66262,-3.25506 0,-0.69026 -2.22081,-4.23149 -4.93493,-7.86939 -2.71425,-3.6379 -5.67008,-8.44407 -6.56841,-10.68038 -2.0665,-5.1444 -21.80722,-35.50593 -27.01743,-41.55313 -2.15543,-2.50181 -5.0592,-6.16452 -6.45275,-8.13933 -1.39354,-1.97482 -3.63892,-4.6311 -4.98965,-5.90282 -2.91378,-2.74343 -6.68737,-9.27246 -16.71279,-28.91634 -4.08942,-8.01288 -7.73595,-14.85392 -8.10334,-15.20231 -0.36739,-0.34839 -0.62532,-2.23891 -0.57338,-4.20116 0.0519,-1.96225 -0.32698,-3.82832 -0.84234,-4.14682 -0.51535,-0.31851 -1.31031,-3.27372 -1.76651,-6.56715 -0.9229,-6.66138 -5.20375,-16.75636 -7.10581,-16.75636 -0.67574,0 -0.87629,-0.57009 -0.44568,-1.26686 0.4306,-0.69677 -0.26794,-1.26686 -1.55241,-1.26686 -1.28662,0 -3.4171,1.83123 -4.74426,4.07802 -1.99391,3.3754 -2.46367,7.03149 -2.72654,21.2199 -0.75631,40.82509 -0.6575,49.54071 0.70438,62.11539 0.79229,7.31611 1.40862,14.72724 1.3696,16.46917 -0.0393,1.74193 0.49116,4.30732 1.1783,5.70087 0.68715,1.39355 2.3703,5.95424 3.74015,10.13488 1.36986,4.18063 3.6573,10.16654 5.08328,13.30202 1.42597,3.13548 2.60871,7.98122 2.62835,10.76831 0.019,2.78709 0.88718,6.70034 1.92816,8.69611 1.04085,1.99578 1.89243,4.50873 1.89243,5.58436 0,2.76584 13.94686,30.69304 15.32812,30.69304 0.6276,0 1.14106,1.07919 1.14106,2.39818 0,1.319 0.78178,2.69817 1.73724,3.06483 0.95547,0.36666 2.13124,2.23643 2.61277,4.15502 0.48154,1.91861 3.40532,7.65583 6.49735,12.74936 4.1444,6.82716 5.62181,10.57872 5.62181,14.2752 0,2.75783 0.49319,5.31903 1.09596,5.69155 1.47754,0.91324 2.67358,8.98449 3.53555,23.85927 0.69247,11.94887 0.62849,12.35188 -1.95793,12.35188 -1.47044,0 -2.67358,-0.71384 -2.67358,-1.5863 0,-0.87246 -2.56539,-4.34094 -5.70087,-7.70774 -3.13547,-3.3668 -5.70086,-6.60571 -5.70086,-7.19757 0,-0.59188 -1.56774,-1.25652 -3.48387,-1.47699 -2.668,-0.30698 -4.13895,-1.69931 -6.28083,-5.94503 -1.53835,-3.0493 -4.10374,-6.44813 -5.70087,-7.55296 -1.59713,-1.10484 -8.60476,-7.08072 -15.57249,-13.27973 -6.96773,-6.19901 -14.80199,-12.63855 -17.40957,-14.3101 -2.60757,-1.67156 -6.21952,-5.38131 -8.02656,-8.24391 -1.80705,-2.8626 -4.36522,-5.48703 -5.68466,-5.83208 -1.31943,-0.34504 -4.0694,-3.14918 -6.11095,-6.23144 -2.04154,-3.08224 -5.9422,-7.55902 -8.6681,-9.94839 -2.72578,-2.38936 -6.05534,-6.6386 -7.39897,-9.44273 -1.34363,-2.80414 -2.80875,-5.10499 -3.25583,-5.11298 -0.44707,-0.008 -1.15943,-1.39581 -1.58319,-3.08404 -0.42377,-1.68823 -2.11553,-4.68119 -3.75966,-6.65102 -1.64413,-1.96982 -3.9393,-5.43428 -5.10038,-7.69879 -1.27724,-2.49097 -3.07555,-4.11729 -4.55296,-4.11729 -2.52929,0 -7.62789,-9.36194 -7.62789,-14.00601 0,-1.2552 -0.75214,-3.03552 -1.6715,-3.95625 -0.91936,-0.92074 -2.37662,-4.5245 -3.23847,-8.00836 -0.86184,-3.48387 -2.62265,-8.61465 -3.91295,-11.40174 -6.48176,-14.00086 -15.15265,-36.38737 -16.92879,-43.70665 -1.8828,-7.75909 -5.0839,-21.35397 -9.09833,-38.63922 -0.97092,-4.18063 -2.70272,-15.58237 -3.84834,-25.33719 -1.14575,-9.75482 -2.88388,-19.53245 -3.8624,-21.72807 -0.97865,-2.19562 -1.7793,-4.89851 -1.7793,-6.00643 0,-1.10792 -1.78666,-6.01002 -3.97021,-10.89356 -3.75776,-8.40406 -4.19432,-8.87917 -8.15985,-8.87917 -2.30429,0 -4.44693,0.42757 -4.76149,0.95015 -0.31456,0.52258 -0.0811,12.78617 0.51878,27.25244 1.32894,32.04811 4.13148,54.85942 9.92027,80.74733 1.61005,7.20073 1.72483,15.846 0.24818,18.70337 -0.6252,1.2099 -2.13694,4.62268 -3.35946,7.58396 -1.22252,2.96129 -2.99904,5.38416 -3.94791,5.38416 -1.58003,0 -4.29124,1.16873 -9.29179,4.00554 -1.04515,0.59292 -2.743,1.47037 -3.77308,1.94991 -1.03009,0.47955 -3.31043,2.5911 -5.06744,4.69235 -1.75701,2.10125 -4.4335,4.90546 -5.94765,6.23157 -1.51428,1.32611 -3.50882,4.97053 -4.43249,8.09873 -1.47678,5.00167 -9.363868,15.5614 -11.622798,15.5614 -1.70355,0 -0.72541,-4.04345 2.44504,-10.10683 1.8002,-3.44279 3.421398,-7.56543 3.602688,-9.16142 0.52752,-4.64441 2.06638,-8.60266 3.34451,-8.60266 0.64977,0 1.18147,-1.64681 1.18147,-3.65959 0,-3.15876 -0.58934,-3.77016 -4.30669,-4.46753 -4.947338,-0.92811 -6.498858,-2.48692 -7.388828,-7.42343 -0.54133,-3.00228 -0.28276,-3.40398 1.77107,-2.75211 1.32273,0.41981 3.9113,2.15936 5.752428,3.86567 3.82782,3.54749 5.38719,2.41087 5.4195,-3.95036 0.0127,-2.10015 1.14081,-6.88641 2.51129,-10.63612 3.61562,-9.89194 6.28147,-41.50214 3.92942,-46.59204 -0.74466,-1.61138 -1.98719,-4.29302 -2.76112,-5.95922 -1.87204,-4.03001 -0.51865,-15.29889 4.0841,-34.00569 4.36674,-17.7479 4.43731,-19.93626 1.00057,-31.03196 -4.38663,-14.16217 -6.34329,-17.875 -13.29354,-25.22491 -3.653748,-3.86391 -7.180938,-8.540055 -7.838308,-10.391455 -2.6618,-7.49757 -4.0822,-12.51981 -4.0822,-14.43375 0,-1.11082 -1.71026,-3.63389 -3.80059,-5.60682 -2.09032,-1.97292 -3.80058,-4.82548 -3.80058,-6.33901 0,-2.79916 -0.483,-3.9603 -7.3736801,-17.72631 -3.60319,-7.19839 -3.97036,-9.1568 -4.75031005,-25.3372 -0.83569,-17.33694 -0.81125,-17.56669 2.15549005,-20.2586399 3.3672,-3.05531 12.7921901,-6.52311 20.6140601,-7.58464997 5.54808,-0.75295 35.686038,1.41045997 48.263418,3.46454997 4.18064,0.68276 11.06095,1.47855 15.28973,1.76843 6.45667,0.4426 8.99394,1.39269 15.83574,5.9297199 4.48088,2.97146 8.90045,6.13247 9.8212,7.02444 0.92076,0.89198 2.06676,1.62178 2.54664,1.62178 0.48002,0 2.31722,1.33945 4.08271,2.97658 1.76562,1.63711 5.7504,4.62473 8.8551,6.63915 3.10469,2.01442 5.93004,3.956 6.27842,4.31462 1.41179,1.45334 10.35709,3.94868 16.69417,4.65693 4.97154,0.55564 9.22679,2.28995 16.19883,6.60218 11.61672,7.18487 13.01863,7.98863 20.94853,12.00945 3.48387,1.76649 7.99072,4.666 10.01516,6.44335 2.02457,1.77734 4.13566,3.23154 4.69144,3.23154 0.95495,0 8.00439,6.10594 19.40043,16.80372 2.7938,2.6227 7.09429,7.79292 9.55668,11.48937 13.55641,20.350915 16.53328,24.592885 19.48455,27.765455 1.78247,1.91612 4.12325,3.48386 5.2016,3.48386 1.07848,0 1.96085,0.496 1.96085,1.10222 0,0.60622 2.56539,1.82048 5.70086,2.69836 3.13548,0.87788 5.70037,2.23466 5.69973,3.01507 -6.3e-4,0.78042 1.73649,3.1292 3.86012,5.21952 4.40158,4.33234 12.6102,16.85647 12.6102,19.23984 0,0.8741 1.70772,4.02879 3.79487,7.01045 2.74503,3.92131 4.51762,8.92621 6.40689,18.08979 1.43649,6.96773 3.54252,15.80407 4.67991,19.63632 1.99087,6.708 2.38106,32.51923 1.24494,82.34587 -0.15836,6.94591 0.76683,15.93979 2.60644,25.33719 1.56862,8.01289 3.7238,19.41374 4.78949,25.33521 1.06555,5.9215 2.47987,11.30882 3.14282,11.97183 0.66308,0.66302 1.20555,1.9494 1.20555,2.85861 0,0.90923 1.42521,4.60747 3.16714,8.21832 1.74194,3.61085 3.16779,7.45614 3.16867,8.54509 8.9e-4,1.08895 1.42611,3.63631 3.16715,5.66082 1.74105,2.0245 3.16563,5.19354 3.16563,7.04231 0,1.84876 0.83701,4.46801 1.86,5.82053 1.02299,1.35253 1.87812,3.91792 1.90029,5.70087 0.0228,1.78295 0.86185,4.34834 1.86609,5.70087 1.00424,1.35252 1.52061,3.70949 1.14752,5.23769 -0.44353,1.81718 0.45885,4.26937 2.60821,7.0873 1.80755,2.36982 3.28649,4.96756 3.28649,5.77275 0,0.80521 0.46595,1.464 1.03553,1.464 1.39342,0 5.2918,12.59832 5.32663,17.21395 0.0152,2.02908 1.13106,6.11994 2.4795,9.09082 2.98966,6.58654 4.55487,14.23473 2.91314,14.23473 -0.65762,0 -4.42653,-3.4173 -8.37546,-7.59401 z M 55.25503,263.70227 c 3.37504,-3.92774 6.66824,-17.7827 7.20742,-30.32189 0.47646,-11.0806 -1.34946,-28.94631 -3.01627,-29.51261 -0.6836,-0.23227 -1.24292,-1.22992 -1.24292,-2.21701 0,-0.98709 -0.51992,-1.79472 -1.15537,-1.79472 -0.63533,0 -0.99081,1.49798 -0.78989,3.32883 0.20105,1.83084 -0.72122,10.80971 -2.0494,19.95304 -1.32805,9.14331 -2.69435,18.90455 -3.03628,21.69165 -0.3418,2.78709 -1.28346,8.39037 -2.0926,12.45172 -1.23037,6.17558 -1.17438,7.57214 0.34231,8.5319 2.54778,1.6123 2.67256,1.56716 5.833,-2.11091 z m 179.74912,-152.6462 c 0.77684,-1.25683 -14.06467,-16.274285 -16.13599,-16.327355 -0.47279,-0.0127 -1.65578,-0.81822 -2.62899,-1.79138 -0.9732,-0.97315 -4.86195,-3.45091 -8.64175,-5.50615 -3.77993,-2.05524 -8.6885,-4.81136 -10.90792,-6.12472 -5.41354,-3.20333 -6.76008,-1.39117 -2.37067,3.19037 3.35072,3.49738 23.67342,17.811025 25.28829,17.811025 0.41477,0 1.79463,0.99765 3.06643,2.217 3.62664,3.47734 9.54706,7.91788 10.55649,7.91788 0.50446,0 1.30284,-0.62401 1.77411,-1.38667 z"
     style="fill:url(#meshgradient862);fill-opacity:1;stroke-width:1.26685953" />
</svg>
