<?xml version="1.0" encoding="UTF-8" standalone="no"?>
<!-- Created with Inkscape (http://www.inkscape.org/) -->

<svg
   xmlns:dc="http://purl.org/dc/elements/1.1/"
   xmlns:cc="http://creativecommons.org/ns#"
   xmlns:rdf="http://www.w3.org/1999/02/22-rdf-syntax-ns#"
   xmlns:svg="http://www.w3.org/2000/svg"
   xmlns="http://www.w3.org/2000/svg"
   xmlns:sodipodi="http://sodipodi.sourceforge.net/DTD/sodipodi-0.dtd"
   xmlns:inkscape="http://www.inkscape.org/namespaces/inkscape"
   id="svg2"
   version="1.1"
   inkscape:version="0.91 r"
   xml:space="preserve"
   width="318.49249"
   height="466.01251"
   viewBox="0 0 318.49249 466.01251"
   sodipodi:docname="human.svg"><metadata
     id="metadata8"><rdf:RDF><cc:Work
         rdf:about=""><dc:format>image/svg+xml</dc:format><dc:type
           rdf:resource="http://purl.org/dc/dcmitype/StillImage" /><dc:title></dc:title></cc:Work></rdf:RDF></metadata><defs
     id="defs6"><clipPath
       clipPathUnits="userSpaceOnUse"
       id="clipPath38"><path
         d="m 55.12,29.48 53.86,0 0,371.74 -53.86,0 0,-371.74 z"
         id="path40"
         inkscape:connector-curvature="0" /></clipPath></defs><sodipodi:namedview
     pagecolor="#ffffff"
     bordercolor="#666666"
     borderopacity="1"
     objecttolerance="10"
     gridtolerance="10"
     guidetolerance="10"
     inkscape:pageopacity="0"
     inkscape:pageshadow="2"
     inkscape:window-width="1440"
     inkscape:window-height="859"
     id="namedview4"
     showgrid="false"
     inkscape:snap-bbox="true"
     inkscape:bbox-nodes="true"
     inkscape:object-nodes="true"
     fit-margin-top="0"
     fit-margin-left="0"
     fit-margin-right="0"
     fit-margin-bottom="0"
     inkscape:zoom="1.2797794"
     inkscape:cx="278.86989"
     inkscape:cy="222.1173"
     inkscape:window-x="0"
     inkscape:window-y="21"
     inkscape:window-maximized="1"
     inkscape:current-layer="g10" /><g
     id="g10"
     inkscape:groupmode="layer"
     inkscape:label="human"
     transform="matrix(1.25,0,0,-1.25,-13.8525,502.19375)"><g
       id="g12" /><g
       id="g14" /><g
       id="g16" /><g
       id="g18" /><g
       id="g20" /><g
       id="g22" /><g
       id="g24" /><g
       id="g26" /><g
       id="g28" /><g
       id="g30" /><g
       id="g32" /><path
       d="m 57.57,46.37 48.97,0 0,67.59 -48.97,0 0,-67.59 z"
       style="fill:#003c30;fill-opacity:1;fill-rule:nonzero;stroke:none"
       id="path42"
       inkscape:connector-curvature="0" /><path
       d="m 57.57,113.96 48.97,0 0,43.93 -48.97,0 0,-43.93 z"
       style="fill:#01665e;fill-opacity:1;fill-rule:nonzero;stroke:none"
       id="path44"
       inkscape:connector-curvature="0" /><path
       d="m 57.57,157.9 48.97,0 0,27.04 -48.97,0 0,-27.04 z"
       style="fill:#35978f;fill-opacity:1;fill-rule:nonzero;stroke:none"
       id="path46"
       inkscape:connector-curvature="0" /><path
       d="m 57.57,184.93 48.97,0 0,10.14 -48.97,0 0,-10.14 z"
       style="fill:#80cdc1;fill-opacity:1;fill-rule:nonzero;stroke:none"
       id="path48"
       inkscape:connector-curvature="0" /><path
       d="m 57.57,195.07 48.97,0 0,10.14 -48.97,0 0,-10.14 z"
       style="fill:#c7eae5;fill-opacity:1;fill-rule:nonzero;stroke:none"
       id="path50"
       inkscape:connector-curvature="0" /><path
       d="m 57.57,205.21 48.97,0 0,16.9 -48.97,0 0,-16.9 z"
       style="fill:#f6e8c3;fill-opacity:1;fill-rule:nonzero;stroke:none"
       id="path52"
       inkscape:connector-curvature="0" /><path
       d="m 57.57,222.11 48.97,0 0,27.04 -48.97,0 0,-27.04 z"
       style="fill:#dfc27d;fill-opacity:1;fill-rule:nonzero;stroke:none"
       id="path54"
       inkscape:connector-curvature="0" /><path
       d="m 57.57,249.14 48.97,0 0,40.55 -48.97,0 0,-40.55 z"
       style="fill:#bf812d;fill-opacity:1;fill-rule:nonzero;stroke:none"
       id="path56"
       inkscape:connector-curvature="0" /><path
       d="m 57.57,289.69 48.97,0 0,87.87 -48.97,0 0,-87.87 z"
       style="fill:#8c510a;fill-opacity:1;fill-rule:nonzero;stroke:none"
       id="path58"
       inkscape:connector-curvature="0" /><path
       d="m 57.57,377.56 48.97,0 0,6.76 -48.97,0 0,-6.76 z"
       style="fill:#543005;fill-opacity:1;fill-rule:nonzero;stroke:none"
       id="path60"
       inkscape:connector-curvature="0" /><g
       id="g62" /><g
       id="g64" /><g
       id="g66" /><g
       id="g68" /><g
       id="g70" /><g
       id="g72" /><g
       id="g74" /><g
       id="g76" /><g
       id="g78" /><g
       id="g80" /><g
       id="g82" /><g
       id="g84" /><g
       id="g86"><path
         d="m 55.12,29.48 0,371.74"
         style="fill:none;stroke:#000000;stroke-width:1.07000005;stroke-linecap:square;stroke-linejoin:round;stroke-miterlimit:10;stroke-dasharray:none;stroke-opacity:1"
         id="path88"
         inkscape:connector-curvature="0" /></g><g
       id="g90" /><g
       id="g92" /><g
       id="g94"><text
         transform="matrix(1,0,0,-1,41.97,42.07)"
         style="font-variant:normal;font-weight:normal;font-size:12px;font-family:Helvetica;-inkscape-font-specification:Helvetica;writing-mode:lr-tb;fill:#000000;fill-opacity:1;fill-rule:nonzero;stroke:none"
         id="text96"><tspan
           x="0"
           y="0"
           id="tspan98">0</tspan></text>
<text
         transform="matrix(1,0,0,-1,35.3,126.55)"
         style="font-variant:normal;font-weight:normal;font-size:12px;font-family:Helvetica;-inkscape-font-specification:Helvetica;writing-mode:lr-tb;fill:#000000;fill-opacity:1;fill-rule:nonzero;stroke:none"
         id="text100"><tspan
           x="0 6.6719999"
           y="0"
           sodipodi:role="line"
           id="tspan102">25</tspan></text>
<text
         transform="matrix(1,0,0,-1,35.3,211.04)"
         style="font-variant:normal;font-weight:normal;font-size:12px;font-family:Helvetica;-inkscape-font-specification:Helvetica;writing-mode:lr-tb;fill:#000000;fill-opacity:1;fill-rule:nonzero;stroke:none"
         id="text104"><tspan
           x="0 6.6719999"
           y="0"
           sodipodi:role="line"
           id="tspan106">50</tspan></text>
<text
         transform="matrix(1,0,0,-1,35.3,295.52)"
         style="font-variant:normal;font-weight:normal;font-size:12px;font-family:Helvetica;-inkscape-font-specification:Helvetica;writing-mode:lr-tb;fill:#000000;fill-opacity:1;fill-rule:nonzero;stroke:none"
         id="text108"><tspan
           x="0 6.6719999"
           y="0"
           sodipodi:role="line"
           id="tspan110">75</tspan></text>
<text
         transform="matrix(1,0,0,-1,28.63,380.01)"
         style="font-variant:normal;font-weight:normal;font-size:12px;font-family:Helvetica;-inkscape-font-specification:Helvetica;writing-mode:lr-tb;fill:#000000;fill-opacity:1;fill-rule:nonzero;stroke:none"
         id="text112"><tspan
           x="0 6.6719999 13.344"
           y="0"
           sodipodi:role="line"
           id="tspan114">100</tspan></text>
</g><g
       id="g116" /><g
       id="g118"><path
         d="m 51.64,46.37 3.48,0"
         style="fill:none;stroke:#000000;stroke-width:1.07000005;stroke-linecap:butt;stroke-linejoin:round;stroke-miterlimit:10;stroke-dasharray:none;stroke-opacity:1"
         id="path120"
         inkscape:connector-curvature="0" /><path
         d="m 51.64,130.86 3.48,0"
         style="fill:none;stroke:#000000;stroke-width:1.07000005;stroke-linecap:butt;stroke-linejoin:round;stroke-miterlimit:10;stroke-dasharray:none;stroke-opacity:1"
         id="path122"
         inkscape:connector-curvature="0" /><path
         d="m 51.64,215.35 3.48,0"
         style="fill:none;stroke:#000000;stroke-width:1.07000005;stroke-linecap:butt;stroke-linejoin:round;stroke-miterlimit:10;stroke-dasharray:none;stroke-opacity:1"
         id="path124"
         inkscape:connector-curvature="0" /><path
         d="m 51.64,299.83 3.48,0"
         style="fill:none;stroke:#000000;stroke-width:1.07000005;stroke-linecap:butt;stroke-linejoin:round;stroke-miterlimit:10;stroke-dasharray:none;stroke-opacity:1"
         id="path126"
         inkscape:connector-curvature="0" /><path
         d="m 51.64,384.32 3.48,0"
         style="fill:none;stroke:#000000;stroke-width:1.07000005;stroke-linecap:butt;stroke-linejoin:round;stroke-miterlimit:10;stroke-dasharray:none;stroke-opacity:1"
         id="path128"
         inkscape:connector-curvature="0" /></g><g
       id="g130" /><g
       id="g132" /><g
       id="g134" /><g
       id="g136" /><g
       id="g138" /><g
       id="g140" /><g
       id="g142" /><g
       id="g144" /><g
       id="g146" /><g
       id="g148" /><g
       id="g150" /><g
       id="g152" /><g
       id="g154" /><g
       id="g156" /><g
       id="g158" /><g
       id="g160" /><g
       id="g162"><text
         transform="matrix(0,1,1,0,21.33,133.21)"
         style="font-variant:normal;font-weight:normal;font-size:14px;font-family:Helvetica;-inkscape-font-specification:Helvetica;writing-mode:lr-tb;fill:#000000;fill-opacity:1;fill-rule:nonzero;stroke:none"
         id="text164"><tspan
           x="0 8.6379995 16.422001 21.084 28.084 35.868 43.652 47.543999 51.436001 59.220001 63.112 67.003998 74.788002 82.571999 94.234001 102.018 109.802 113.694 121.478 129.26199 137.04601 144.83 156.492"
           y="0"
           sodipodi:role="line"
           id="tspan166">Percent of human genome</tspan></text>
</g><g
       id="g168" /><g
       id="g170" /><g
       id="g172" /><g
       id="g174" /><g
       id="g176" /><g
       id="g178" /><g
       id="g180" /><g
       id="g182" /><g
       id="g184" /><g
       id="g186" /><g
       id="g188" /><g
       id="g190" /><g
       id="g192" /><g
       id="g198" /><g
       id="g200" /><g
       id="g202" /><g
       id="g208" /><g
       id="g210" /><g
       id="g212" /><g
       id="g218" /><g
       id="g220" /><g
       id="g222" /><g
       id="g228" /><g
       id="g230" /><g
       id="g232" /><g
       id="g238" /><g
       id="g240" /><g
       id="g242" /><g
       id="g248" /><g
       id="g250" /><g
       id="g252" /><g
       id="g258" /><g
       id="g260" /><g
       id="g262" /><g
       id="g268" /><g
       id="g270" /><g
       id="g272" /><g
       id="g278" /><g
       id="g280" /><g
       id="g282" /><g
       id="g288" /><g
       id="g290"
       transform="translate(-32,104.164)"><text
         transform="matrix(1,0,0,-1,142.55,273.68)"
         style="font-variant:normal;font-weight:normal;font-size:12px;font-family:Helvetica;-inkscape-font-specification:Helvetica;writing-mode:lr-tb;fill:#000000;fill-opacity:1;fill-rule:nonzero;stroke:none"
         id="text292"><tspan
           x="0 6.3119998 12.312 18.983999 25.656"
           y="0"
           sodipodi:role="line"
           id="tspan294">exons</tspan></text>
</g><g
       id="g296" /><g
       id="g298"
       transform="translate(-32,70.109)"><text
         transform="matrix(1,0,0,-1,142.55,259.28)"
         style="font-variant:normal;font-weight:normal;font-size:12px;font-family:Helvetica;-inkscape-font-specification:Helvetica;writing-mode:lr-tb;fill:#000000;fill-opacity:1;fill-rule:nonzero;stroke:none"
         id="text300"><tspan
           x="0 2.664 9.3360004 12.672 16.667999 23.34 30.011999"
           y="0"
           sodipodi:role="line"
           id="tspan302">introns</tspan></text>
</g><g
       id="g304" /><g
       id="g306"
       transform="translate(-32,21.469)"><text
         transform="matrix(1,0,0,-1,142.55,244.88)"
         style="font-variant:normal;font-weight:normal;font-size:12px;font-family:Helvetica;-inkscape-font-specification:Helvetica;writing-mode:lr-tb;fill:#000000;fill-opacity:1;fill-rule:nonzero;stroke:none"
         id="text308"><tspan
           x="0 9.9960003 12.66 18.66 24.66 27.996 31.332001 38.004002 44.675999 47.34 54.012001 60.683998"
           y="0"
           sodipodi:role="line"
           id="tspan310">misc. unique</tspan></text>
</g><g
       id="g312" /><g
       id="g314"
       transform="translate(-32,0.914)"><text
         transform="matrix(1,0,0,-1,142.55,230.48)"
         style="font-variant:normal;font-weight:normal;font-size:12px;font-family:Helvetica;-inkscape-font-specification:Helvetica;writing-mode:lr-tb;fill:#000000;fill-opacity:1;fill-rule:nonzero;stroke:none"
         id="text316"><tspan
           x="0 9.9960003 12.66 18.66 24.66 27.996 31.332001 38.004002 44.675999 48.012001 54.683998 58.68 65.351997 71.351997 78.024002 82.019997 88.692001 98.688004 105.36 108.696 111.36"
           y="0"
           sodipodi:role="line"
           id="tspan318">misc. heterochromatin</tspan></text>
</g><g
       id="g320" /><g
       id="g322"
       transform="translate(-32,-5.486)"><text
         transform="matrix(1,0,0,-1,142.55,216.08)"
         style="font-variant:normal;font-weight:normal;font-size:12px;font-family:Helvetica;-inkscape-font-specification:Helvetica;writing-mode:lr-tb;fill:#000000;fill-opacity:1;fill-rule:nonzero;stroke:none"
         id="text324"><tspan
           x="0 6 12.672 19.344 29.34 36.012001 42.683998 46.02 52.692001 55.355999 58.692001 65.363998 72.036003 78.708 81.372002 84.036003 90.036003 96.708 100.044 102.708 109.38 116.052"
           y="0"
           sodipodi:role="line"
           id="tspan326">segmental duplications</tspan></text>
</g><g
       id="g328" /><g
       id="g330"
       transform="translate(-32,-4.606)"><text
         transform="matrix(1,0,0,-1,142.55,201.68)"
         style="font-variant:normal;font-weight:normal;font-size:12px;font-family:Helvetica;-inkscape-font-specification:Helvetica;writing-mode:lr-tb;fill:#000000;fill-opacity:1;fill-rule:nonzero;stroke:none"
         id="text332"><tspan
           x="0 6 8.6639996 18.66 25.332001 27.996 34.667999 38.004002 44.004002 50.675999 57.348 64.019997 70.692001 77.363998 83.363998 90.036003 93.372002 97.367996 104.04 110.712 117.384 124.056 127.392"
           y="0"
           sodipodi:role="line"
           id="tspan334">simple sequence repeats</tspan></text>
</g><g
       id="g336" /><g
       id="g338"
       transform="translate(-32,-2.2585539)"><text
         transform="matrix(1,0,0,-1,142.55,187.28)"
         style="font-variant:normal;font-weight:normal;font-size:12px;font-family:Helvetica;-inkscape-font-specification:Helvetica;writing-mode:lr-tb;fill:#000000;fill-opacity:1;fill-rule:nonzero;stroke:none"
         id="text340"><tspan
           x="0 8.6639996 17.327999 25.332001 28.667999 32.004002 35.880001 42.551998 49.223999 55.223999 61.896 68.568001 74.568001 81.239998 87.912003"
           y="0"
           sodipodi:role="line"
           id="tspan342">DNA transposons</tspan></text>
</g><g
       id="g344" /><g
       id="g346"
       transform="translate(-32,-4.526)"><text
         transform="matrix(1,0,0,-1,142.55,172.88)"
         style="font-variant:normal;font-weight:normal;font-size:12px;font-family:Helvetica;-inkscape-font-specification:Helvetica;writing-mode:lr-tb;fill:#000000;fill-opacity:1;fill-rule:nonzero;stroke:none"
         id="text348"><tspan
           x="0 5.3520002 12.684 21.348 24.684 28.68 35.352001 38.688 42.683998 49.355999 52.692001 56.568001 63.240002 69.912003 75.912003 82.584 89.255997 95.255997 101.928 108.6"
           y="0"
           sodipodi:role="line"
           id="tspan350">LTR retrotransposons</tspan></text>
</g><g
       id="g352" /><g
       id="g354"
       transform="translate(-32,-26.863)"><text
         transform="matrix(1,0,0,-1,142.55,158.48)"
         style="font-variant:normal;font-weight:normal;font-size:12px;font-family:Helvetica;-inkscape-font-specification:Helvetica;writing-mode:lr-tb;fill:#000000;fill-opacity:1;fill-rule:nonzero;stroke:none"
         id="text356"><tspan
           x="0 8.0039997 11.34 20.004 28.007999"
           y="0"
           sodipodi:role="line"
           id="tspan358">SINEs</tspan></text>
</g><g
       id="g360" /><g
       id="g362"
       transform="translate(-32,-68.151)"><text
         transform="matrix(1,0,0,-1,142.55,144.08)"
         style="font-variant:normal;font-weight:normal;font-size:12px;font-family:Helvetica;-inkscape-font-specification:Helvetica;writing-mode:lr-tb;fill:#000000;fill-opacity:1;fill-rule:nonzero;stroke:none"
         id="text364"><tspan
           x="0 6.6719999 10.008 18.672001 26.676001"
           y="0"
           sodipodi:role="line"
           id="tspan366">LINEs</tspan></text>
</g><g
       id="g368" /><g
       id="g370" /><g
       id="g372" /><g
       id="g374" /><g
       id="g376" /><g
       id="g378" /><g
       id="g380" /><g
       id="g382" /><g
       id="g384" /><g
       id="g386" /><path
       style="fill:none;fill-rule:evenodd;stroke:#000000;stroke-width:0.80000001px;stroke-linecap:butt;stroke-linejoin:miter;stroke-opacity:1"
       d="m 250.54,195.07 0,-148.7"
       id="path4535"
       inkscape:connector-curvature="0" /><g
       transform="matrix(0,-1,1,0,69.848001,325.56406)"
       id="g4537"><text
         id="text4539"
         style="font-style:normal;font-variant:normal;font-weight:normal;font-stretch:normal;font-size:12px;line-height:125%;font-family:Helvetica;-inkscape-font-specification:'Helvetica, Normal';text-align:start;writing-mode:lr-tb;text-anchor:start;fill:#000000;fill-opacity:1;fill-rule:nonzero;stroke:none"
         transform="matrix(1,0,0,-1,142.55,187.28)"
         sodipodi:linespacing="125%"><tspan
           sodipodi:role="line"
           id="tspan4543"
           x="0"
           y="0">Transposable elements</tspan></text>
</g></g></svg>